<svg xmlns="http://www.w3.org/2000/svg" xmlns:xlink="http://www.w3.org/1999/xlink" width="970" height="494.2"><rect width="970" height="494.2" rx="5" ry="5" class="a"/><svg y="0%" x="0%"><circle cx="20" cy="20" r="6" fill="#ff5f58"/><circle cx="40" cy="20" r="6" fill="#ffbd2e"/><circle cx="60" cy="20" r="6" fill="#18c132"/></svg><svg height="434.2" viewBox="0 0 93 43.42" width="930" x="15" xmlns="http://www.w3.org/2000/svg" xmlns:xlink="http://www.w3.org/1999/xlink" y="50"><style>@keyframes p{0%{transform:translateX(0)}6.87%{transform:translateX(-93px)}6.97%{transform:translateX(-465px)}9.97%{transform:translateX(-558px)}10.36%{transform:translateX(-651px)}11.18%{transform:translateX(-744px)}11.72%{transform:translateX(-837px)}12.62%{transform:translateX(-1023px)}12.63%{transform:translateX(-1209px)}12.64%{transform:translateX(-1302px)}12.72%{transform:translateX(-1581px)}12.73%{transform:translateX(-1674px)}13.34%{transform:translateX(-1767px)}18.41%{transform:translateX(-1860px)}18.8%{transform:translateX(-1953px)}21.07%{transform:translateX(-2046px)}24.56%{transform:translateX(-2139px)}25.38%{transform:translateX(-2232px)}26.1%{transform:translateX(-2325px)}27.25%{transform:translateX(-2418px)}28.01%{transform:translateX(-2511px)}28.48%{transform:translateX(-2604px)}28.76%{transform:translateX(-2697px)}29.41%{transform:translateX(-2790px)}29.84%{transform:translateX(-2883px)}29.94%{transform:translateX(-2976px)}31.6%{transform:translateX(-3348px)}31.88%{transform:translateX(-3441px)}38.29%{transform:translateX(-3534px)}38.9%{transform:translateX(-3627px)}39.58%{transform:translateX(-3720px)}41.27%{transform:translateX(-3813px)}41.28%{transform:translateX(-3906px)}41.3%{transform:translateX(-3999px)}41.38%{transform:translateX(-4092px)}41.39%{transform:translateX(-4371px)}41.98%{transform:translateX(-4464px)}45.19%{transform:translateX(-4557px)}46.88%{transform:translateX(-4836px)}47.16%{transform:translateX(-4929px)}48.67%{transform:translateX(-5022px)}49.43%{transform:translateX(-5115px)}50.18%{transform:translateX(-5208px)}50.51%{transform:translateX(-5301px)}50.83%{transform:translateX(-5394px)}51.26%{transform:translateX(-5487px)}52.66%{transform:translateX(-5580px)}52.67%{transform:translateX(-5673px)}52.69%{transform:translateX(-5766px)}52.8%{transform:translateX(-5952px)}52.81%{transform:translateX(-6045px)}53.5%{transform:translateX(-6138px)}56.29%{transform:translateX(-6231px)}59.53%{transform:translateX(-6324px)}59.54%{transform:translateX(-6510px)}59.82%{transform:translateX(-6603px)}63.77%{transform:translateX(-6696px)}64.35%{transform:translateX(-6789px)}66.65%{transform:translateX(-6882px)}66.66%{transform:translateX(-6975px)}66.68%{transform:translateX(-7068px)}66.77%{transform:translateX(-7347px)}66.78%{transform:translateX(-7440px)}67.37%{transform:translateX(-7533px)}73.73%{transform:translateX(-7626px)}77.15%{transform:translateX(-7905px)}77.45%{transform:translateX(-7998px)}84.48%{transform:translateX(-8091px)}87.68%{transform:translateX(-8184px)}90.3%{transform:translateX(-8277px)}90.31%{transform:translateX(-8370px)}90.34%{transform:translateX(-8463px)}90.42%{transform:translateX(-8556px)}90.43%{transform:translateX(-8835px)}91.01%{transform:translateX(-8928px)}to{transform:translateX(-9021px)}}.a{fill:#121b21}.f,.g{fill:#5486c0;white-space:pre}.g{fill:#e44754}.h,.i{font-weight:700}.h{fill:#e44754;white-space:pre}.i{fill:#f7bd51}.i,.j,.k,.l,.m{white-space:pre}.j{fill:#89bd82;font-weight:700}.k,.l,.m{fill:#b3b8c3}.l,.m{fill:#5486c0;font-weight:700}.m{fill:#fff}</style><g font-family="Monaco,Consolas,Menlo,'Bitstream Vera Sans Mono','Powerline Symbols',monospace" font-size="1.67"><defs><symbol id="1"><text y="1.67" class="f">/V/HD</text><text x="88.176" y="1.67" class="g">✘</text><text x="90.18" y="1.67" class="g">1</text></symbol><symbol id="2"><text y="1.67" class="f">/V/HD</text><text x="6.012" y="1.67" class="h">❯</text><text x="7.014" y="1.67" class="i">❯</text><text x="8.016" y="1.67" class="j">❯</text><text x="88.176" y="1.67" class="g">✘</text><text x="90.18" y="1.67" class="g">1</text></symbol><symbol id="3"><text y="1.67" class="f">/V/HD</text><text x="6.012" y="1.67" class="h">❯</text><text x="7.014" y="1.67" class="i">❯</text><text x="8.016" y="1.67" class="j">❯</text><text x="10.02" y="1.67" class="k">cd</text><text x="88.176" y="1.67" class="g">✘</text><text x="90.18" y="1.67" class="g">1</text></symbol><symbol id="4"><text y="1.67" class="f">/V/HD</text><text x="6.012" y="1.67" class="h">❯</text><text x="7.014" y="1.67" class="i">❯</text><text x="8.016" y="1.67" class="j">❯</text><text x="10.02" y="1.67" class="k">cd</text><text x="13.026" y="1.67" class="k">-</text><text x="88.176" y="1.67" class="g">✘</text><text x="90.18" y="1.67" class="g">1</text></symbol><symbol id="5"><text y="1.67" class="k">/Volumes/HD/Formations/wildCodeSchool/nodejs/discoverNodeJS63</text></symbol><symbol id="6"><text y="1.67" class="f">/V/H/F/w/n/discoverNodeJS63</text><text x="28.056" y="1.67" class="h">❯</text><text x="29.058" y="1.67" class="i">❯</text><text x="30.06" y="1.67" class="j">❯</text></symbol><symbol id="7"><text y="1.67" class="f">/V/H/F/w/n/discoverNodeJS63</text><text x="28.056" y="1.67" class="h">❯</text><text x="29.058" y="1.67" class="i">❯</text><text x="30.06" y="1.67" class="j">❯</text><text x="82.164" y="1.67" class="j">master</text><text x="89.178" y="1.67" class="l">✱</text><text x="91.182" y="1.67" class="m">◼</text></symbol><symbol id="8"><text y="1.67" class="f">/V/H/F/w/n/discoverNodeJS63</text><text x="28.056" y="1.67" class="h">❯</text><text x="29.058" y="1.67" class="i">❯</text><text x="30.06" y="1.67" class="j">❯</text><text x="32.064" y="1.67" class="k">n</text><text x="82.164" y="1.67" class="j">master</text><text x="89.178" y="1.67" class="l">✱</text><text x="91.182" y="1.67" class="m">◼</text></symbol><symbol id="9"><text y="1.67" class="f">/V/H/F/w/n/discoverNodeJS63</text><text x="28.056" y="1.67" class="h">❯</text><text x="29.058" y="1.67" class="i">❯</text><text x="30.06" y="1.67" class="j">❯</text><text x="32.064" y="1.67" class="k">no</text><text x="82.164" y="1.67" class="j">master</text><text x="89.178" y="1.67" class="l">✱</text><text x="91.182" y="1.67" class="m">◼</text></symbol><symbol id="10"><text y="1.67" class="f">/V/H/F/w/n/discoverNodeJS63</text><text x="28.056" y="1.67" class="h">❯</text><text x="29.058" y="1.67" class="i">❯</text><text x="30.06" y="1.67" class="j">❯</text><text x="32.064" y="1.67" class="k">node</text><text x="82.164" y="1.67" class="j">master</text><text x="89.178" y="1.67" class="l">✱</text><text x="91.182" y="1.67" class="m">◼</text></symbol><symbol id="11"><text y="1.67" class="f">/V/H/F/w/n/discoverNodeJS63</text><text x="28.056" y="1.67" class="h">❯</text><text x="29.058" y="1.67" class="i">❯</text><text x="30.06" y="1.67" class="j">❯</text><text x="32.064" y="1.67" class="k">node</text><text x="37.074" y="1.67" class="k">index.js</text><text x="82.164" y="1.67" class="j">master</text><text x="89.178" y="1.67" class="l">✱</text><text x="91.182" y="1.67" class="m">◼</text></symbol><symbol id="12"><text y="1.67" class="k">What&apos;s</text><text x="7.014" y="1.67" class="k">your</text><text x="12.024" y="1.67" class="k">age</text><text x="16.032" y="1.67" class="k">?</text></symbol><symbol id="13"><text y="1.67" class="k">1</text></symbol><symbol id="14"><text y="1.67" class="k">100</text></symbol><symbol id="15"><text y="1.67" class="k">Error</text><text x="6.012" y="1.67" class="k">!</text></symbol><symbol id="16"><text y="1.67" class="k">string</text></symbol><symbol id="17"><text y="1.67" class="k">18</text></symbol><symbol id="18"><text y="1.67" class="k">Year</text><text x="5.01" y="1.67" class="k">of</text><text x="8.016" y="1.67" class="k">birth:</text><text x="15.03" y="1.67" class="k">2002</text></symbol><symbol id="19"><text y="1.67" class="k">62</text></symbol><symbol id="20"><text y="1.67" class="k">Year</text><text x="5.01" y="1.67" class="k">of</text><text x="8.016" y="1.67" class="k">birth:</text><text x="15.03" y="1.67" class="k">1958</text></symbol><symbol id="a"><path fill="transparent" d="M0 0h93v21H0z"/></symbol><symbol id="b"><path fill="#b3b8c3" d="M0 0h1.102v2.171H0z"/></symbol></defs><path class="a" d="M0 0h93v43.42H0z"/><g style="animation-duration:22.253648s;animation-iteration-count:infinite;animation-name:p;animation-timing-function:steps(1,end)"><svg width="9114"><svg><use xlink:href="#a"/><use xlink:href="#b" x="-.004"/></svg><svg x="93"><use xlink:href="#a"/><use xlink:href="#b" x="-.004"/></svg><svg x="186"><use xlink:href="#a"/><use xlink:href="#b" x="5.996"/><use xlink:href="#1"/></svg><svg x="279"><use xlink:href="#a"/><use xlink:href="#b" x="5.996"/><use xlink:href="#1"/></svg><svg x="372"><use xlink:href="#a"/><use xlink:href="#b" x="9.996"/><use xlink:href="#2"/></svg><svg x="465"><use xlink:href="#a"/><use xlink:href="#b" x="9.996"/><use xlink:href="#2"/></svg><svg x="558"><use xlink:href="#a"/><use xlink:href="#b" x="10.996"/><text y="1.67" class="f">/V/HD</text><text x="6.012" y="1.67" class="h">❯</text><text x="7.014" y="1.67" class="i">❯</text><text x="8.016" y="1.67" class="j">❯</text><text x="10.02" y="1.67" class="k">c</text><text x="88.176" y="1.67" class="g">✘</text><text x="90.18" y="1.67" class="g">1</text></svg><svg x="651"><use xlink:href="#a"/><use xlink:href="#b" x="11.996"/><use xlink:href="#3"/></svg><svg x="744"><use xlink:href="#a"/><use xlink:href="#b" x="12.996"/><use xlink:href="#3"/></svg><svg x="837"><use xlink:href="#a"/><use xlink:href="#b" x="13.996"/><use xlink:href="#4"/></svg><svg x="930"><use xlink:href="#a"/><use xlink:href="#b" x="13.996"/><use xlink:href="#4"/></svg><svg x="1023"><use xlink:href="#a"/><use xlink:href="#b" x="13.996"/><use xlink:href="#4"/></svg><svg x="1116"><use xlink:href="#a"/><use xlink:href="#b" x="-.004" y="2.146"/><use xlink:href="#4"/></svg><svg x="1209"><use xlink:href="#a"/><use xlink:href="#b" x="-.004" y="4.317"/><use xlink:href="#4"/><use xlink:href="#5" y="2.171"/></svg><svg x="1302"><use xlink:href="#a"/><use xlink:href="#b" x="-.004" y="4.317"/><use xlink:href="#4"/><use xlink:href="#5" y="2.171"/></svg><svg x="1395"><use xlink:href="#a"/><use xlink:href="#b" x="31.996" y="4.317"/><use xlink:href="#4"/><use xlink:href="#5" y="2.171"/><use xlink:href="#6" y="4.342"/></svg><svg x="1488"><use xlink:href="#a"/><use xlink:href="#b" x="31.996" y="4.317"/><use xlink:href="#4"/><use xlink:href="#5" y="2.171"/><use xlink:href="#6" y="4.342"/></svg><svg x="1581"><use xlink:href="#a"/><use xlink:href="#b" x="31.996" y="4.317"/><use xlink:href="#4"/><use xlink:href="#5" y="2.171"/><use xlink:href="#6" y="4.342"/></svg><svg x="1674"><use xlink:href="#a"/><use xlink:href="#b" x="31.996" y="4.317"/><use xlink:href="#4"/><use xlink:href="#5" y="2.171"/><use xlink:href="#6" y="4.342"/></svg><svg x="1767"><use xlink:href="#a"/><use xlink:href="#b" x="31.996" y="4.317"/><use xlink:href="#4"/><use xlink:href="#5" y="2.171"/><use xlink:href="#7" y="4.342"/></svg><svg x="1860"><use xlink:href="#a"/><use xlink:href="#b" x="32.996" y="4.317"/><use xlink:href="#4"/><use xlink:href="#5" y="2.171"/><use xlink:href="#8" y="4.342"/></svg><svg x="1953"><use xlink:href="#a"/><use xlink:href="#b" x="33.996" y="4.317"/><use xlink:href="#4"/><use xlink:href="#5" y="2.171"/><use xlink:href="#9" y="4.342"/></svg><svg x="2046"><use xlink:href="#a"/><use xlink:href="#b" x="32.996" y="4.317"/><use xlink:href="#4"/><use xlink:href="#5" y="2.171"/><use xlink:href="#8" y="4.342"/></svg><svg x="2139"><use xlink:href="#a"/><use xlink:href="#b" x="33.996" y="4.317"/><use xlink:href="#4"/><use xlink:href="#5" y="2.171"/><use xlink:href="#9" y="4.342"/></svg><svg x="2232"><use xlink:href="#a"/><use xlink:href="#b" x="34.996" y="4.317"/><use xlink:href="#4"/><use xlink:href="#5" y="2.171"/><text y="6.012" class="f">/V/H/F/w/n/discoverNodeJS63</text><text x="28.056" y="6.012" class="h">❯</text><text x="29.058" y="6.012" class="i">❯</text><text x="30.06" y="6.012" class="j">❯</text><text x="32.064" y="6.012" class="k">nod</text><text x="82.164" y="6.012" class="j">master</text><text x="89.178" y="6.012" class="l">✱</text><text x="91.182" y="6.012" class="m">◼</text></svg><svg x="2325"><use xlink:href="#a"/><use xlink:href="#b" x="35.996" y="4.317"/><use xlink:href="#4"/><use xlink:href="#5" y="2.171"/><use xlink:href="#10" y="4.342"/></svg><svg x="2418"><use xlink:href="#a"/><use xlink:href="#b" x="36.996" y="4.317"/><use xlink:href="#4"/><use xlink:href="#5" y="2.171"/><use xlink:href="#10" y="4.342"/></svg><svg x="2511"><use xlink:href="#a"/><use xlink:href="#b" x="37.996" y="4.317"/><use xlink:href="#4"/><use xlink:href="#5" y="2.171"/><text y="6.012" class="f">/V/H/F/w/n/discoverNodeJS63</text><text x="28.056" y="6.012" class="h">❯</text><text x="29.058" y="6.012" class="i">❯</text><text x="30.06" y="6.012" class="j">❯</text><text x="32.064" y="6.012" class="k">node</text><text x="37.074" y="6.012" class="k">i</text><text x="82.164" y="6.012" class="j">master</text><text x="89.178" y="6.012" class="l">✱</text><text x="91.182" y="6.012" class="m">◼</text></svg><svg x="2604"><use xlink:href="#a"/><use xlink:href="#b" x="38.996" y="4.317"/><use xlink:href="#4"/><use xlink:href="#5" y="2.171"/><text y="6.012" class="f">/V/H/F/w/n/discoverNodeJS63</text><text x="28.056" y="6.012" class="h">❯</text><text x="29.058" y="6.012" class="i">❯</text><text x="30.06" y="6.012" class="j">❯</text><text x="32.064" y="6.012" class="k">node</text><text x="37.074" y="6.012" class="k">in</text><text x="82.164" y="6.012" class="j">master</text><text x="89.178" y="6.012" class="l">✱</text><text x="91.182" y="6.012" class="m">◼</text></svg><svg x="2697"><use xlink:href="#a"/><use xlink:href="#b" x="39.996" y="4.317"/><use xlink:href="#4"/><use xlink:href="#5" y="2.171"/><text y="6.012" class="f">/V/H/F/w/n/discoverNodeJS63</text><text x="28.056" y="6.012" class="h">❯</text><text x="29.058" y="6.012" class="i">❯</text><text x="30.06" y="6.012" class="j">❯</text><text x="32.064" y="6.012" class="k">node</text><text x="37.074" y="6.012" class="k">ind</text><text x="82.164" y="6.012" class="j">master</text><text x="89.178" y="6.012" class="l">✱</text><text x="91.182" y="6.012" class="m">◼</text></svg><svg x="2790"><use xlink:href="#a"/><use xlink:href="#b" x="40.996" y="4.317"/><use xlink:href="#4"/><use xlink:href="#5" y="2.171"/><text y="6.012" class="f">/V/H/F/w/n/discoverNodeJS63</text><text x="28.056" y="6.012" class="h">❯</text><text x="29.058" y="6.012" class="i">❯</text><text x="30.06" y="6.012" class="j">❯</text><text x="32.064" y="6.012" class="k">node</text><text x="37.074" y="6.012" class="k">inde</text><text x="82.164" y="6.012" class="j">master</text><text x="89.178" y="6.012" class="l">✱</text><text x="91.182" y="6.012" class="m">◼</text></svg><svg x="2883"><use xlink:href="#a"/><use xlink:href="#b" x="43.996" y="4.317"/><use xlink:href="#4"/><use xlink:href="#5" y="2.171"/><text y="6.012" class="f">/V/H/F/w/n/discoverNodeJS63</text><text x="28.056" y="6.012" class="h">❯</text><text x="29.058" y="6.012" class="i">❯</text><text x="30.06" y="6.012" class="j">❯</text><text x="32.064" y="6.012" class="k">node</text><text x="37.074" y="6.012" class="k">inde</text><text x="41.082" y="6.012" class="m">...</text><text x="82.164" y="6.012" class="j">master</text><text x="89.178" y="6.012" class="l">✱</text><text x="91.182" y="6.012" class="m">◼</text></svg><svg x="2976"><use xlink:href="#a"/><use xlink:href="#b" x="45.996" y="4.317"/><use xlink:href="#4"/><use xlink:href="#5" y="2.171"/><use xlink:href="#11" y="4.342"/></svg><svg x="3069"><use xlink:href="#a"/><use xlink:href="#b" x="44.996" y="4.317"/><use xlink:href="#4"/><use xlink:href="#5" y="2.171"/><use xlink:href="#11" y="4.342"/></svg><svg x="3162"><use xlink:href="#a"/><use xlink:href="#b" x="44.996" y="4.317"/><use xlink:href="#4"/><use xlink:href="#5" y="2.171"/><use xlink:href="#11" y="4.342"/></svg><svg x="3255"><use xlink:href="#a"/><use xlink:href="#b" x="44.996" y="4.317"/><use xlink:href="#4"/><use xlink:href="#5" y="2.171"/><use xlink:href="#11" y="4.342"/></svg><svg x="3348"><use xlink:href="#a"/><use xlink:href="#b" x="-.004" y="6.488"/><use xlink:href="#4"/><use xlink:href="#5" y="2.171"/><use xlink:href="#11" y="4.342"/></svg><svg x="3441"><use xlink:href="#a"/><use xlink:href="#b" x="-.004" y="8.659"/><use xlink:href="#4"/><use xlink:href="#5" y="2.171"/><use xlink:href="#11" y="4.342"/><use xlink:href="#12" y="6.513"/></svg><svg x="3534"><use xlink:href="#a"/><use xlink:href="#b" x=".996" y="8.659"/><use xlink:href="#4"/><use xlink:href="#5" y="2.171"/><use xlink:href="#11" y="4.342"/><use xlink:href="#12" y="6.513"/><use xlink:href="#13" y="8.684"/></svg><svg x="3627"><use xlink:href="#a"/><use xlink:href="#b" x="1.996" y="8.659"/><use xlink:href="#4"/><use xlink:href="#5" y="2.171"/><use xlink:href="#11" y="4.342"/><use xlink:href="#12" y="6.513"/><text y="10.354" class="k">10</text></svg><svg x="3720"><use xlink:href="#a"/><use xlink:href="#b" x="2.996" y="8.659"/><use xlink:href="#4"/><use xlink:href="#5" y="2.171"/><use xlink:href="#11" y="4.342"/><use xlink:href="#12" y="6.513"/><use xlink:href="#14" y="8.684"/></svg><svg x="3813"><use xlink:href="#a"/><use xlink:href="#b" x="-.004" y="10.83"/><use xlink:href="#4"/><use xlink:href="#5" y="2.171"/><use xlink:href="#11" y="4.342"/><use xlink:href="#12" y="6.513"/><use xlink:href="#14" y="8.684"/></svg><svg x="3906"><use xlink:href="#a"/><use xlink:href="#b" x="-.004" y="13.001"/><use xlink:href="#4"/><use xlink:href="#5" y="2.171"/><use xlink:href="#11" y="4.342"/><use xlink:href="#12" y="6.513"/><use xlink:href="#14" y="8.684"/><use xlink:href="#15" y="10.855"/></svg><svg x="3999"><use xlink:href="#a"/><use xlink:href="#b" x="-.004" y="13.001"/><use xlink:href="#4"/><use xlink:href="#5" y="2.171"/><use xlink:href="#11" y="4.342"/><use xlink:href="#12" y="6.513"/><use xlink:href="#14" y="8.684"/><use xlink:href="#15" y="10.855"/></svg><svg x="4092"><use xlink:href="#a"/><use xlink:href="#b" x="31.996" y="13.001"/><use xlink:href="#4"/><use xlink:href="#5" y="2.171"/><use xlink:href="#11" y="4.342"/><use xlink:href="#12" y="6.513"/><use xlink:href="#14" y="8.684"/><use xlink:href="#15" y="10.855"/><use xlink:href="#7" y="13.026"/></svg><svg x="4185"><use xlink:href="#a"/><use xlink:href="#b" x="31.996" y="13.001"/><use xlink:href="#4"/><use xlink:href="#5" y="2.171"/><use xlink:href="#11" y="4.342"/><use xlink:href="#12" y="6.513"/><use xlink:href="#14" y="8.684"/><use xlink:href="#15" y="10.855"/><use xlink:href="#7" y="13.026"/></svg><svg x="4278"><use xlink:href="#a"/><use xlink:href="#b" x="31.996" y="13.001"/><use xlink:href="#4"/><use xlink:href="#5" y="2.171"/><use xlink:href="#11" y="4.342"/><use xlink:href="#12" y="6.513"/><use xlink:href="#14" y="8.684"/><use xlink:href="#15" y="10.855"/><use xlink:href="#7" y="13.026"/></svg><svg x="4371"><use xlink:href="#a"/><use xlink:href="#b" x="31.996" y="13.001"/><use xlink:href="#4"/><use xlink:href="#5" y="2.171"/><use xlink:href="#11" y="4.342"/><use xlink:href="#12" y="6.513"/><use xlink:href="#14" y="8.684"/><use xlink:href="#15" y="10.855"/><use xlink:href="#7" y="13.026"/></svg><svg x="4464"><use xlink:href="#a"/><use xlink:href="#b" x="31.996" y="13.001"/><use xlink:href="#4"/><use xlink:href="#5" y="2.171"/><use xlink:href="#11" y="4.342"/><use xlink:href="#12" y="6.513"/><use xlink:href="#14" y="8.684"/><use xlink:href="#15" y="10.855"/><use xlink:href="#7" y="13.026"/></svg><svg x="4557"><use xlink:href="#a"/><use xlink:href="#b" x="44.996" y="13.001"/><use xlink:href="#4"/><use xlink:href="#5" y="2.171"/><use xlink:href="#11" y="4.342"/><use xlink:href="#12" y="6.513"/><use xlink:href="#14" y="8.684"/><use xlink:href="#15" y="10.855"/><use xlink:href="#11" y="13.026"/></svg><svg x="4650"><use xlink:href="#a"/><use xlink:href="#b" x="44.996" y="13.001"/><use xlink:href="#4"/><use xlink:href="#5" y="2.171"/><use xlink:href="#11" y="4.342"/><use xlink:href="#12" y="6.513"/><use xlink:href="#14" y="8.684"/><use xlink:href="#15" y="10.855"/><use xlink:href="#11" y="13.026"/></svg><svg x="4743"><use xlink:href="#a"/><use xlink:href="#b" x="44.996" y="13.001"/><use xlink:href="#4"/><use xlink:href="#5" y="2.171"/><use xlink:href="#11" y="4.342"/><use xlink:href="#12" y="6.513"/><use xlink:href="#14" y="8.684"/><use xlink:href="#15" y="10.855"/><use xlink:href="#11" y="13.026"/></svg><svg x="4836"><use xlink:href="#a"/><use xlink:href="#b" x="-.004" y="15.172"/><use xlink:href="#4"/><use xlink:href="#5" y="2.171"/><use xlink:href="#11" y="4.342"/><use xlink:href="#12" y="6.513"/><use xlink:href="#14" y="8.684"/><use xlink:href="#15" y="10.855"/><use xlink:href="#11" y="13.026"/></svg><svg x="4929"><use xlink:href="#a"/><use xlink:href="#b" x="-.004" y="17.343"/><use xlink:href="#4"/><use xlink:href="#5" y="2.171"/><use xlink:href="#11" y="4.342"/><use xlink:href="#12" y="6.513"/><use xlink:href="#14" y="8.684"/><use xlink:href="#15" y="10.855"/><use xlink:href="#11" y="13.026"/><use xlink:href="#12" y="15.197"/></svg><svg x="5022"><use xlink:href="#a"/><use xlink:href="#b" x=".996" y="17.343"/><use xlink:href="#4"/><use xlink:href="#5" y="2.171"/><use xlink:href="#11" y="4.342"/><use xlink:href="#12" y="6.513"/><use xlink:href="#14" y="8.684"/><use xlink:href="#15" y="10.855"/><use xlink:href="#11" y="13.026"/><use xlink:href="#12" y="15.197"/><text y="19.038" class="k">s</text></svg><svg x="5115"><use xlink:href="#a"/><use xlink:href="#b" x="1.996" y="17.343"/><use xlink:href="#4"/><use xlink:href="#5" y="2.171"/><use xlink:href="#11" y="4.342"/><use xlink:href="#12" y="6.513"/><use xlink:href="#14" y="8.684"/><use xlink:href="#15" y="10.855"/><use xlink:href="#11" y="13.026"/><use xlink:href="#12" y="15.197"/><text y="19.038" class="k">st</text></svg><svg x="5208"><use xlink:href="#a"/><use xlink:href="#b" x="2.996" y="17.343"/><use xlink:href="#4"/><use xlink:href="#5" y="2.171"/><use xlink:href="#11" y="4.342"/><use xlink:href="#12" y="6.513"/><use xlink:href="#14" y="8.684"/><use xlink:href="#15" y="10.855"/><use xlink:href="#11" y="13.026"/><use xlink:href="#12" y="15.197"/><text y="19.038" class="k">str</text></svg><svg x="5301"><use xlink:href="#a"/><use xlink:href="#b" x="3.996" y="17.343"/><use xlink:href="#4"/><use xlink:href="#5" y="2.171"/><use xlink:href="#11" y="4.342"/><use xlink:href="#12" y="6.513"/><use xlink:href="#14" y="8.684"/><use xlink:href="#15" y="10.855"/><use xlink:href="#11" y="13.026"/><use xlink:href="#12" y="15.197"/><text y="19.038" class="k">stri</text></svg><svg x="5394"><use xlink:href="#a"/><use xlink:href="#b" x="4.996" y="17.343"/><use xlink:href="#4"/><use xlink:href="#5" y="2.171"/><use xlink:href="#11" y="4.342"/><use xlink:href="#12" y="6.513"/><use xlink:href="#14" y="8.684"/><use xlink:href="#15" y="10.855"/><use xlink:href="#11" y="13.026"/><use xlink:href="#12" y="15.197"/><text y="19.038" class="k">strin</text></svg><svg x="5487"><use xlink:href="#a"/><use xlink:href="#b" x="5.996" y="17.343"/><use xlink:href="#4"/><use xlink:href="#5" y="2.171"/><use xlink:href="#11" y="4.342"/><use xlink:href="#12" y="6.513"/><use xlink:href="#14" y="8.684"/><use xlink:href="#15" y="10.855"/><use xlink:href="#11" y="13.026"/><use xlink:href="#12" y="15.197"/><use xlink:href="#16" y="17.368"/></svg><svg x="5580"><use xlink:href="#a"/><use xlink:href="#b" x="-.004" y="19.514"/><use xlink:href="#4"/><use xlink:href="#5" y="2.171"/><use xlink:href="#11" y="4.342"/><use xlink:href="#12" y="6.513"/><use xlink:href="#14" y="8.684"/><use xlink:href="#15" y="10.855"/><use xlink:href="#11" y="13.026"/><use xlink:href="#12" y="15.197"/><use xlink:href="#16" y="17.368"/></svg><svg x="5673"><use xlink:href="#a"/><use xlink:href="#b" x="-.004" y="21.685"/><use xlink:href="#4"/><use xlink:href="#5" y="2.171"/><use xlink:href="#11" y="4.342"/><use xlink:href="#12" y="6.513"/><use xlink:href="#14" y="8.684"/><use xlink:href="#15" y="10.855"/><use xlink:href="#11" y="13.026"/><use xlink:href="#12" y="15.197"/><use xlink:href="#16" y="17.368"/><use xlink:href="#15" y="19.539"/></svg><svg x="5766"><use xlink:href="#a"/><use xlink:href="#b" x="-.004" y="21.685"/><use xlink:href="#4"/><use xlink:href="#5" y="2.171"/><use xlink:href="#11" y="4.342"/><use xlink:href="#12" y="6.513"/><use xlink:href="#14" y="8.684"/><use xlink:href="#15" y="10.855"/><use xlink:href="#11" y="13.026"/><use xlink:href="#12" y="15.197"/><use xlink:href="#16" y="17.368"/><use xlink:href="#15" y="19.539"/></svg><svg x="5859"><use xlink:href="#a"/><use xlink:href="#b" x="31.996" y="21.685"/><use xlink:href="#4"/><use xlink:href="#5" y="2.171"/><use xlink:href="#11" y="4.342"/><use xlink:href="#12" y="6.513"/><use xlink:href="#14" y="8.684"/><use xlink:href="#15" y="10.855"/><use xlink:href="#11" y="13.026"/><use xlink:href="#12" y="15.197"/><use xlink:href="#16" y="17.368"/><use xlink:href="#15" y="19.539"/><use xlink:href="#6" y="21.71"/></svg><svg x="5952"><use xlink:href="#a"/><use xlink:href="#b" x="31.996" y="21.685"/><use xlink:href="#4"/><use xlink:href="#5" y="2.171"/><use xlink:href="#11" y="4.342"/><use xlink:href="#12" y="6.513"/><use xlink:href="#14" y="8.684"/><use xlink:href="#15" y="10.855"/><use xlink:href="#11" y="13.026"/><use xlink:href="#12" y="15.197"/><use xlink:href="#16" y="17.368"/><use xlink:href="#15" y="19.539"/><use xlink:href="#7" y="21.71"/></svg><svg x="6045"><use xlink:href="#a"/><use xlink:href="#b" x="31.996" y="21.685"/><use xlink:href="#4"/><use xlink:href="#5" y="2.171"/><use xlink:href="#11" y="4.342"/><use xlink:href="#12" y="6.513"/><use xlink:href="#14" y="8.684"/><use xlink:href="#15" y="10.855"/><use xlink:href="#11" y="13.026"/><use xlink:href="#12" y="15.197"/><use xlink:href="#16" y="17.368"/><use xlink:href="#15" y="19.539"/><use xlink:href="#7" y="21.71"/></svg><svg x="6138"><use xlink:href="#a"/><use xlink:href="#b" x="31.996" y="21.685"/><use xlink:href="#4"/><use xlink:href="#5" y="2.171"/><use xlink:href="#11" y="4.342"/><use xlink:href="#12" y="6.513"/><use xlink:href="#14" y="8.684"/><use xlink:href="#15" y="10.855"/><use xlink:href="#11" y="13.026"/><use xlink:href="#12" y="15.197"/><use xlink:href="#16" y="17.368"/><use xlink:href="#15" y="19.539"/><use xlink:href="#7" y="21.71"/></svg><svg x="6231"><use xlink:href="#a"/><use xlink:href="#b" x="44.996" y="21.685"/><use xlink:href="#4"/><use xlink:href="#5" y="2.171"/><use xlink:href="#11" y="4.342"/><use xlink:href="#12" y="6.513"/><use xlink:href="#14" y="8.684"/><use xlink:href="#15" y="10.855"/><use xlink:href="#11" y="13.026"/><use xlink:href="#12" y="15.197"/><use xlink:href="#16" y="17.368"/><use xlink:href="#15" y="19.539"/><use xlink:href="#11" y="21.71"/></svg><svg x="6324"><use xlink:href="#a"/><use xlink:href="#b" x="44.996" y="21.685"/><use xlink:href="#4"/><use xlink:href="#5" y="2.171"/><use xlink:href="#11" y="4.342"/><use xlink:href="#12" y="6.513"/><use xlink:href="#14" y="8.684"/><use xlink:href="#15" y="10.855"/><use xlink:href="#11" y="13.026"/><use xlink:href="#12" y="15.197"/><use xlink:href="#16" y="17.368"/><use xlink:href="#15" y="19.539"/><use xlink:href="#11" y="21.71"/></svg><svg x="6417"><use xlink:href="#a"/><use xlink:href="#b" x="44.996" y="21.685"/><use xlink:href="#4"/><use xlink:href="#5" y="2.171"/><use xlink:href="#11" y="4.342"/><use xlink:href="#12" y="6.513"/><use xlink:href="#14" y="8.684"/><use xlink:href="#15" y="10.855"/><use xlink:href="#11" y="13.026"/><use xlink:href="#12" y="15.197"/><use xlink:href="#16" y="17.368"/><use xlink:href="#15" y="19.539"/><use xlink:href="#11" y="21.71"/></svg><svg x="6510"><use xlink:href="#a"/><use xlink:href="#b" x="-.004" y="23.856"/><use xlink:href="#4"/><use xlink:href="#5" y="2.171"/><use xlink:href="#11" y="4.342"/><use xlink:href="#12" y="6.513"/><use xlink:href="#14" y="8.684"/><use xlink:href="#15" y="10.855"/><use xlink:href="#11" y="13.026"/><use xlink:href="#12" y="15.197"/><use xlink:href="#16" y="17.368"/><use xlink:href="#15" y="19.539"/><use xlink:href="#11" y="21.71"/></svg><svg x="6603"><use xlink:href="#a"/><use xlink:href="#b" x="-.004" y="26.027"/><use xlink:href="#4"/><use xlink:href="#5" y="2.171"/><use xlink:href="#11" y="4.342"/><use xlink:href="#12" y="6.513"/><use xlink:href="#14" y="8.684"/><use xlink:href="#15" y="10.855"/><use xlink:href="#11" y="13.026"/><use xlink:href="#12" y="15.197"/><use xlink:href="#16" y="17.368"/><use xlink:href="#15" y="19.539"/><use xlink:href="#11" y="21.71"/><use xlink:href="#12" y="23.881"/></svg><svg x="6696"><use xlink:href="#a"/><use xlink:href="#b" x=".996" y="26.027"/><use xlink:href="#4"/><use xlink:href="#5" y="2.171"/><use xlink:href="#11" y="4.342"/><use xlink:href="#12" y="6.513"/><use xlink:href="#14" y="8.684"/><use xlink:href="#15" y="10.855"/><use xlink:href="#11" y="13.026"/><use xlink:href="#12" y="15.197"/><use xlink:href="#16" y="17.368"/><use xlink:href="#15" y="19.539"/><use xlink:href="#11" y="21.71"/><use xlink:href="#12" y="23.881"/><use xlink:href="#13" y="26.052"/></svg><svg x="6789"><use xlink:href="#a"/><use xlink:href="#b" x="1.996" y="26.027"/><use xlink:href="#4"/><use xlink:href="#5" y="2.171"/><use xlink:href="#11" y="4.342"/><use xlink:href="#12" y="6.513"/><use xlink:href="#14" y="8.684"/><use xlink:href="#15" y="10.855"/><use xlink:href="#11" y="13.026"/><use xlink:href="#12" y="15.197"/><use xlink:href="#16" y="17.368"/><use xlink:href="#15" y="19.539"/><use xlink:href="#11" y="21.71"/><use xlink:href="#12" y="23.881"/><use xlink:href="#17" y="26.052"/></svg><svg x="6882"><use xlink:href="#a"/><use xlink:href="#b" x="-.004" y="28.198"/><use xlink:href="#4"/><use xlink:href="#5" y="2.171"/><use xlink:href="#11" y="4.342"/><use xlink:href="#12" y="6.513"/><use xlink:href="#14" y="8.684"/><use xlink:href="#15" y="10.855"/><use xlink:href="#11" y="13.026"/><use xlink:href="#12" y="15.197"/><use xlink:href="#16" y="17.368"/><use xlink:href="#15" y="19.539"/><use xlink:href="#11" y="21.71"/><use xlink:href="#12" y="23.881"/><use xlink:href="#17" y="26.052"/></svg><svg x="6975"><use xlink:href="#a"/><use xlink:href="#b" x="-.004" y="30.369"/><use xlink:href="#4"/><use xlink:href="#5" y="2.171"/><use xlink:href="#11" y="4.342"/><use xlink:href="#12" y="6.513"/><use xlink:href="#14" y="8.684"/><use xlink:href="#15" y="10.855"/><use xlink:href="#11" y="13.026"/><use xlink:href="#12" y="15.197"/><use xlink:href="#16" y="17.368"/><use xlink:href="#15" y="19.539"/><use xlink:href="#11" y="21.71"/><use xlink:href="#12" y="23.881"/><use xlink:href="#17" y="26.052"/><use xlink:href="#18" y="28.223"/></svg><svg x="7068"><use xlink:href="#a"/><use xlink:href="#b" x="-.004" y="30.369"/><use xlink:href="#4"/><use xlink:href="#5" y="2.171"/><use xlink:href="#11" y="4.342"/><use xlink:href="#12" y="6.513"/><use xlink:href="#14" y="8.684"/><use xlink:href="#15" y="10.855"/><use xlink:href="#11" y="13.026"/><use xlink:href="#12" y="15.197"/><use xlink:href="#16" y="17.368"/><use xlink:href="#15" y="19.539"/><use xlink:href="#11" y="21.71"/><use xlink:href="#12" y="23.881"/><use xlink:href="#17" y="26.052"/><use xlink:href="#18" y="28.223"/></svg><svg x="7161"><use xlink:href="#a"/><use xlink:href="#b" x="31.996" y="30.369"/><use xlink:href="#4"/><use xlink:href="#5" y="2.171"/><use xlink:href="#11" y="4.342"/><use xlink:href="#12" y="6.513"/><use xlink:href="#14" y="8.684"/><use xlink:href="#15" y="10.855"/><use xlink:href="#11" y="13.026"/><use xlink:href="#12" y="15.197"/><use xlink:href="#16" y="17.368"/><use xlink:href="#15" y="19.539"/><use xlink:href="#11" y="21.71"/><use xlink:href="#12" y="23.881"/><use xlink:href="#17" y="26.052"/><use xlink:href="#18" y="28.223"/><use xlink:href="#7" y="30.394"/></svg><svg x="7254"><use xlink:href="#a"/><use xlink:href="#b" x="31.996" y="30.369"/><use xlink:href="#4"/><use xlink:href="#5" y="2.171"/><use xlink:href="#11" y="4.342"/><use xlink:href="#12" y="6.513"/><use xlink:href="#14" y="8.684"/><use xlink:href="#15" y="10.855"/><use xlink:href="#11" y="13.026"/><use xlink:href="#12" y="15.197"/><use xlink:href="#16" y="17.368"/><use xlink:href="#15" y="19.539"/><use xlink:href="#11" y="21.71"/><use xlink:href="#12" y="23.881"/><use xlink:href="#17" y="26.052"/><use xlink:href="#18" y="28.223"/><use xlink:href="#7" y="30.394"/></svg><svg x="7347"><use xlink:href="#a"/><use xlink:href="#b" x="31.996" y="30.369"/><use xlink:href="#4"/><use xlink:href="#5" y="2.171"/><use xlink:href="#11" y="4.342"/><use xlink:href="#12" y="6.513"/><use xlink:href="#14" y="8.684"/><use xlink:href="#15" y="10.855"/><use xlink:href="#11" y="13.026"/><use xlink:href="#12" y="15.197"/><use xlink:href="#16" y="17.368"/><use xlink:href="#15" y="19.539"/><use xlink:href="#11" y="21.71"/><use xlink:href="#12" y="23.881"/><use xlink:href="#17" y="26.052"/><use xlink:href="#18" y="28.223"/><use xlink:href="#7" y="30.394"/></svg><svg x="7440"><use xlink:href="#a"/><use xlink:href="#b" x="31.996" y="30.369"/><use xlink:href="#4"/><use xlink:href="#5" y="2.171"/><use xlink:href="#11" y="4.342"/><use xlink:href="#12" y="6.513"/><use xlink:href="#14" y="8.684"/><use xlink:href="#15" y="10.855"/><use xlink:href="#11" y="13.026"/><use xlink:href="#12" y="15.197"/><use xlink:href="#16" y="17.368"/><use xlink:href="#15" y="19.539"/><use xlink:href="#11" y="21.71"/><use xlink:href="#12" y="23.881"/><use xlink:href="#17" y="26.052"/><use xlink:href="#18" y="28.223"/><use xlink:href="#7" y="30.394"/></svg><svg x="7533"><use xlink:href="#a"/><use xlink:href="#b" x="31.996" y="30.369"/><use xlink:href="#4"/><use xlink:href="#5" y="2.171"/><use xlink:href="#11" y="4.342"/><use xlink:href="#12" y="6.513"/><use xlink:href="#14" y="8.684"/><use xlink:href="#15" y="10.855"/><use xlink:href="#11" y="13.026"/><use xlink:href="#12" y="15.197"/><use xlink:href="#16" y="17.368"/><use xlink:href="#15" y="19.539"/><use xlink:href="#11" y="21.71"/><use xlink:href="#12" y="23.881"/><use xlink:href="#17" y="26.052"/><use xlink:href="#18" y="28.223"/><use xlink:href="#7" y="30.394"/></svg><svg x="7626"><use xlink:href="#a"/><use xlink:href="#b" x="44.996" y="30.369"/><use xlink:href="#4"/><use xlink:href="#5" y="2.171"/><use xlink:href="#11" y="4.342"/><use xlink:href="#12" y="6.513"/><use xlink:href="#14" y="8.684"/><use xlink:href="#15" y="10.855"/><use xlink:href="#11" y="13.026"/><use xlink:href="#12" y="15.197"/><use xlink:href="#16" y="17.368"/><use xlink:href="#15" y="19.539"/><use xlink:href="#11" y="21.71"/><use xlink:href="#12" y="23.881"/><use xlink:href="#17" y="26.052"/><use xlink:href="#18" y="28.223"/><use xlink:href="#11" y="30.394"/></svg><svg x="7719"><use xlink:href="#a"/><use xlink:href="#b" x="44.996" y="30.369"/><use xlink:href="#4"/><use xlink:href="#5" y="2.171"/><use xlink:href="#11" y="4.342"/><use xlink:href="#12" y="6.513"/><use xlink:href="#14" y="8.684"/><use xlink:href="#15" y="10.855"/><use xlink:href="#11" y="13.026"/><use xlink:href="#12" y="15.197"/><use xlink:href="#16" y="17.368"/><use xlink:href="#15" y="19.539"/><use xlink:href="#11" y="21.71"/><use xlink:href="#12" y="23.881"/><use xlink:href="#17" y="26.052"/><use xlink:href="#18" y="28.223"/><use xlink:href="#11" y="30.394"/></svg><svg x="7812"><use xlink:href="#a"/><use xlink:href="#b" x="44.996" y="30.369"/><use xlink:href="#4"/><use xlink:href="#5" y="2.171"/><use xlink:href="#11" y="4.342"/><use xlink:href="#12" y="6.513"/><use xlink:href="#14" y="8.684"/><use xlink:href="#15" y="10.855"/><use xlink:href="#11" y="13.026"/><use xlink:href="#12" y="15.197"/><use xlink:href="#16" y="17.368"/><use xlink:href="#15" y="19.539"/><use xlink:href="#11" y="21.71"/><use xlink:href="#12" y="23.881"/><use xlink:href="#17" y="26.052"/><use xlink:href="#18" y="28.223"/><use xlink:href="#11" y="30.394"/></svg><svg x="7905"><use xlink:href="#a"/><use xlink:href="#b" x="-.004" y="32.54"/><use xlink:href="#4"/><use xlink:href="#5" y="2.171"/><use xlink:href="#11" y="4.342"/><use xlink:href="#12" y="6.513"/><use xlink:href="#14" y="8.684"/><use xlink:href="#15" y="10.855"/><use xlink:href="#11" y="13.026"/><use xlink:href="#12" y="15.197"/><use xlink:href="#16" y="17.368"/><use xlink:href="#15" y="19.539"/><use xlink:href="#11" y="21.71"/><use xlink:href="#12" y="23.881"/><use xlink:href="#17" y="26.052"/><use xlink:href="#18" y="28.223"/><use xlink:href="#11" y="30.394"/></svg><svg x="7998"><use xlink:href="#a"/><use xlink:href="#b" x="-.004" y="34.711"/><use xlink:href="#4"/><use xlink:href="#5" y="2.171"/><use xlink:href="#11" y="4.342"/><use xlink:href="#12" y="6.513"/><use xlink:href="#14" y="8.684"/><use xlink:href="#15" y="10.855"/><use xlink:href="#11" y="13.026"/><use xlink:href="#12" y="15.197"/><use xlink:href="#16" y="17.368"/><use xlink:href="#15" y="19.539"/><use xlink:href="#11" y="21.71"/><use xlink:href="#12" y="23.881"/><use xlink:href="#17" y="26.052"/><use xlink:href="#18" y="28.223"/><use xlink:href="#11" y="30.394"/><use xlink:href="#12" y="32.565"/></svg><svg x="8091"><use xlink:href="#a"/><use xlink:href="#b" x=".996" y="34.711"/><use xlink:href="#4"/><use xlink:href="#5" y="2.171"/><use xlink:href="#11" y="4.342"/><use xlink:href="#12" y="6.513"/><use xlink:href="#14" y="8.684"/><use xlink:href="#15" y="10.855"/><use xlink:href="#11" y="13.026"/><use xlink:href="#12" y="15.197"/><use xlink:href="#16" y="17.368"/><use xlink:href="#15" y="19.539"/><use xlink:href="#11" y="21.71"/><use xlink:href="#12" y="23.881"/><use xlink:href="#17" y="26.052"/><use xlink:href="#18" y="28.223"/><use xlink:href="#11" y="30.394"/><use xlink:href="#12" y="32.565"/><text y="36.406" class="k">6</text></svg><svg x="8184"><use xlink:href="#a"/><use xlink:href="#b" x="1.996" y="34.711"/><use xlink:href="#4"/><use xlink:href="#5" y="2.171"/><use xlink:href="#11" y="4.342"/><use xlink:href="#12" y="6.513"/><use xlink:href="#14" y="8.684"/><use xlink:href="#15" y="10.855"/><use xlink:href="#11" y="13.026"/><use xlink:href="#12" y="15.197"/><use xlink:href="#16" y="17.368"/><use xlink:href="#15" y="19.539"/><use xlink:href="#11" y="21.71"/><use xlink:href="#12" y="23.881"/><use xlink:href="#17" y="26.052"/><use xlink:href="#18" y="28.223"/><use xlink:href="#11" y="30.394"/><use xlink:href="#12" y="32.565"/><use xlink:href="#19" y="34.736"/></svg><svg x="8277"><use xlink:href="#a"/><use xlink:href="#b" x="-.004" y="36.882"/><use xlink:href="#4"/><use xlink:href="#5" y="2.171"/><use xlink:href="#11" y="4.342"/><use xlink:href="#12" y="6.513"/><use xlink:href="#14" y="8.684"/><use xlink:href="#15" y="10.855"/><use xlink:href="#11" y="13.026"/><use xlink:href="#12" y="15.197"/><use xlink:href="#16" y="17.368"/><use xlink:href="#15" y="19.539"/><use xlink:href="#11" y="21.71"/><use xlink:href="#12" y="23.881"/><use xlink:href="#17" y="26.052"/><use xlink:href="#18" y="28.223"/><use xlink:href="#11" y="30.394"/><use xlink:href="#12" y="32.565"/><use xlink:href="#19" y="34.736"/></svg><svg x="8370"><use xlink:href="#a"/><use xlink:href="#b" x="-.004" y="39.053"/><use xlink:href="#4"/><use xlink:href="#5" y="2.171"/><use xlink:href="#11" y="4.342"/><use xlink:href="#12" y="6.513"/><use xlink:href="#14" y="8.684"/><use xlink:href="#15" y="10.855"/><use xlink:href="#11" y="13.026"/><use xlink:href="#12" y="15.197"/><use xlink:href="#16" y="17.368"/><use xlink:href="#15" y="19.539"/><use xlink:href="#11" y="21.71"/><use xlink:href="#12" y="23.881"/><use xlink:href="#17" y="26.052"/><use xlink:href="#18" y="28.223"/><use xlink:href="#11" y="30.394"/><use xlink:href="#12" y="32.565"/><use xlink:href="#19" y="34.736"/><use xlink:href="#20" y="36.907"/></svg><svg x="8463"><use xlink:href="#a"/><use xlink:href="#b" x="-.004" y="39.053"/><use xlink:href="#4"/><use xlink:href="#5" y="2.171"/><use xlink:href="#11" y="4.342"/><use xlink:href="#12" y="6.513"/><use xlink:href="#14" y="8.684"/><use xlink:href="#15" y="10.855"/><use xlink:href="#11" y="13.026"/><use xlink:href="#12" y="15.197"/><use xlink:href="#16" y="17.368"/><use xlink:href="#15" y="19.539"/><use xlink:href="#11" y="21.71"/><use xlink:href="#12" y="23.881"/><use xlink:href="#17" y="26.052"/><use xlink:href="#18" y="28.223"/><use xlink:href="#11" y="30.394"/><use xlink:href="#12" y="32.565"/><use xlink:href="#19" y="34.736"/><use xlink:href="#20" y="36.907"/></svg><svg x="8556"><use xlink:href="#a"/><use xlink:href="#b" x="31.996" y="39.053"/><use xlink:href="#4"/><use xlink:href="#5" y="2.171"/><use xlink:href="#11" y="4.342"/><use xlink:href="#12" y="6.513"/><use xlink:href="#14" y="8.684"/><use xlink:href="#15" y="10.855"/><use xlink:href="#11" y="13.026"/><use xlink:href="#12" y="15.197"/><use xlink:href="#16" y="17.368"/><use xlink:href="#15" y="19.539"/><use xlink:href="#11" y="21.71"/><use xlink:href="#12" y="23.881"/><use xlink:href="#17" y="26.052"/><use xlink:href="#18" y="28.223"/><use xlink:href="#11" y="30.394"/><use xlink:href="#12" y="32.565"/><use xlink:href="#19" y="34.736"/><use xlink:href="#20" y="36.907"/><use xlink:href="#7" y="39.078"/></svg><svg x="8649"><use xlink:href="#a"/><use xlink:href="#b" x="31.996" y="39.053"/><use xlink:href="#4"/><use xlink:href="#5" y="2.171"/><use xlink:href="#11" y="4.342"/><use xlink:href="#12" y="6.513"/><use xlink:href="#14" y="8.684"/><use xlink:href="#15" y="10.855"/><use xlink:href="#11" y="13.026"/><use xlink:href="#12" y="15.197"/><use xlink:href="#16" y="17.368"/><use xlink:href="#15" y="19.539"/><use xlink:href="#11" y="21.71"/><use xlink:href="#12" y="23.881"/><use xlink:href="#17" y="26.052"/><use xlink:href="#18" y="28.223"/><use xlink:href="#11" y="30.394"/><use xlink:href="#12" y="32.565"/><use xlink:href="#19" y="34.736"/><use xlink:href="#20" y="36.907"/><use xlink:href="#7" y="39.078"/></svg><svg x="8742"><use xlink:href="#a"/><use xlink:href="#b" x="31.996" y="39.053"/><use xlink:href="#4"/><use xlink:href="#5" y="2.171"/><use xlink:href="#11" y="4.342"/><use xlink:href="#12" y="6.513"/><use xlink:href="#14" y="8.684"/><use xlink:href="#15" y="10.855"/><use xlink:href="#11" y="13.026"/><use xlink:href="#12" y="15.197"/><use xlink:href="#16" y="17.368"/><use xlink:href="#15" y="19.539"/><use xlink:href="#11" y="21.71"/><use xlink:href="#12" y="23.881"/><use xlink:href="#17" y="26.052"/><use xlink:href="#18" y="28.223"/><use xlink:href="#11" y="30.394"/><use xlink:href="#12" y="32.565"/><use xlink:href="#19" y="34.736"/><use xlink:href="#20" y="36.907"/><use xlink:href="#7" y="39.078"/></svg><svg x="8835"><use xlink:href="#a"/><use xlink:href="#b" x="31.996" y="39.053"/><use xlink:href="#4"/><use xlink:href="#5" y="2.171"/><use xlink:href="#11" y="4.342"/><use xlink:href="#12" y="6.513"/><use xlink:href="#14" y="8.684"/><use xlink:href="#15" y="10.855"/><use xlink:href="#11" y="13.026"/><use xlink:href="#12" y="15.197"/><use xlink:href="#16" y="17.368"/><use xlink:href="#15" y="19.539"/><use xlink:href="#11" y="21.71"/><use xlink:href="#12" y="23.881"/><use xlink:href="#17" y="26.052"/><use xlink:href="#18" y="28.223"/><use xlink:href="#11" y="30.394"/><use xlink:href="#12" y="32.565"/><use xlink:href="#19" y="34.736"/><use xlink:href="#20" y="36.907"/><use xlink:href="#7" y="39.078"/></svg><svg x="8928"><use xlink:href="#a"/><use xlink:href="#b" x="31.996" y="39.053"/><use xlink:href="#4"/><use xlink:href="#5" y="2.171"/><use xlink:href="#11" y="4.342"/><use xlink:href="#12" y="6.513"/><use xlink:href="#14" y="8.684"/><use xlink:href="#15" y="10.855"/><use xlink:href="#11" y="13.026"/><use xlink:href="#12" y="15.197"/><use xlink:href="#16" y="17.368"/><use xlink:href="#15" y="19.539"/><use xlink:href="#11" y="21.71"/><use xlink:href="#12" y="23.881"/><use xlink:href="#17" y="26.052"/><use xlink:href="#18" y="28.223"/><use xlink:href="#11" y="30.394"/><use xlink:href="#12" y="32.565"/><use xlink:href="#19" y="34.736"/><use xlink:href="#20" y="36.907"/><use xlink:href="#7" y="39.078"/></svg><svg x="9021"><use xlink:href="#a"/><use xlink:href="#b" x="-.004" y="41.224"/><use xlink:href="#4"/><use xlink:href="#5" y="2.171"/><use xlink:href="#11" y="4.342"/><use xlink:href="#12" y="6.513"/><use xlink:href="#14" y="8.684"/><use xlink:href="#15" y="10.855"/><use xlink:href="#11" y="13.026"/><use xlink:href="#12" y="15.197"/><use xlink:href="#16" y="17.368"/><use xlink:href="#15" y="19.539"/><use xlink:href="#11" y="21.71"/><use xlink:href="#12" y="23.881"/><use xlink:href="#17" y="26.052"/><use xlink:href="#18" y="28.223"/><use xlink:href="#11" y="30.394"/><use xlink:href="#12" y="32.565"/><use xlink:href="#19" y="34.736"/><use xlink:href="#20" y="36.907"/><use xlink:href="#7" y="39.078"/></svg></svg></g></g></svg></svg>